<svg xmlns="http://www.w3.org/2000/svg" viewBox="0 0 300 300">
  <rect width="300" height="300" fill="white"/>
  <!-- Shield background -->
  <path d="M150 55 L215 80 L215 155 C215 195 182 228 150 242 C118 228 85 195 85 155 L85 80 Z" fill="#4C51BF"/>
  <path d="M150 65 L207 87 L207 155 C207 191 177 221 150 234 C123 221 93 191 93 155 L93 87 Z" fill="#6366F1"/>
  <!-- Camera icon inside shield -->
  <rect x="120" y="125" width="60" height="42" rx="7" fill="white" opacity="0.95"/>
  <circle cx="150" cy="146" r="13" fill="#4C51BF"/>
  <circle cx="150" cy="146" r="8" fill="#818CF8"/>
  <circle cx="150" cy="146" r="4" fill="white"/>
  <rect x="140" y="118" width="20" height="9" rx="4" fill="white" opacity="0.95"/>
  <circle cx="170" cy="130" r="3.5" fill="white" opacity="0.8"/>
  <!-- Unlimited badge -->
  <rect x="108" y="175" width="84" height="24" rx="12" fill="#F59E0B"/>
  <text x="150" y="191" text-anchor="middle" font-family="Arial, sans-serif" font-size="11" font-weight="bold" fill="white" letter-spacing="0.5">UNLIMITED</text>
  <!-- Stars / check marks -->
  <circle cx="127" cy="108" r="5" fill="white" opacity="0.3"/>
  <circle cx="173" cy="108" r="5" fill="white" opacity="0.3"/>
  <!-- Wyze wordmark below -->
  <text x="150" y="262" text-anchor="middle" font-family="Arial, sans-serif" font-size="11" font-weight="bold" fill="#6B7280" letter-spacing="2">CAM UNLIMITED</text>
</svg>
