<svg xmlns="http://www.w3.org/2000/svg" viewBox="0 0 300 300">
  <rect width="300" height="300" fill="white"/>
  <!-- Body -->
  <rect x="90" y="70" width="120" height="155" rx="16" fill="#e9e9e9" stroke="#d4d4d4" stroke-width="1.5"/>
  <rect x="97" y="77" width="106" height="141" rx="12" fill="#f4f4f4"/>
  <!-- PIR lens dome -->
  <ellipse cx="150" cy="148" rx="40" ry="38" fill="#ddd"/>
  <ellipse cx="150" cy="148" rx="31" ry="30" fill="#c8c8c8"/>
  <!-- Faceted lens sections -->
  <path d="M150 118 L180 140 L172 178 L128 178 L120 140 Z" fill="#bebebe"/>
  <path d="M150 118 L150 178" stroke="#d4d4d4" stroke-width="1" opacity="0.6"/>
  <path d="M120 140 L180 140" stroke="#d4d4d4" stroke-width="1" opacity="0.6"/>
  <ellipse cx="150" cy="148" rx="31" ry="30" fill="none" stroke="#ccc" stroke-width="1"/>
  <ellipse cx="150" cy="148" rx="18" ry="17" fill="#b0b0b0"/>
  <ellipse cx="150" cy="148" rx="9" ry="8.5" fill="#444"/>
  <!-- Wyze branding stripe -->
  <rect x="97" y="204" width="106" height="14" rx="0" fill="#e0e0e0"/>
  <text x="150" y="214.5" text-anchor="middle" font-family="Arial, sans-serif" font-size="8.5" font-weight="bold" fill="#888" letter-spacing="1">WYZE</text>
  <!-- LED indicator -->
  <circle cx="150" cy="96" r="4" fill="#60a5fa"/>
  <circle cx="150" cy="96" r="2" fill="#93c5fd"/>
  <!-- Mounting clip hint -->
  <rect x="130" y="222" width="40" height="8" rx="4" fill="#d8d8d8"/>
</svg>
